<?xml version="1.0" encoding="UTF-8"?>
<svg version="1.1" xmlns="http://www.w3.org/2000/svg" width="200" height="200">
<path d="M0 0 C66 0 132 0 200 0 C200 66 200 132 200 200 C134 200 68 200 0 200 C0 134 0 68 0 0 Z " fill="#FEFEFE" transform="translate(0,0)"/>
<path d="M0 0 C4.55555556 0.55555556 4.55555556 0.55555556 6 2 C6.10112707 4.00766874 6.1307754 6.01894766 6.13371277 8.02915955 C6.13797775 9.34025192 6.14224274 10.6513443 6.14663696 12.00216675 C6.1462874 13.46881106 6.14582584 14.93545536 6.14526367 16.40209961 C6.14825351 17.93592918 6.15165563 19.469758 6.15544128 21.00358582 C6.16430328 25.18121761 6.16662032 29.35882894 6.16725707 33.53646922 C6.16820434 37.01827798 6.17188052 40.50008192 6.17542917 43.98188883 C6.18358207 52.19325062 6.18601264 60.40460143 6.18530273 68.6159668 C6.1847017 77.09961047 6.19525666 85.5831906 6.2110464 94.06681818 C6.22410141 101.33899929 6.22948749 108.61115959 6.22884732 115.88335234 C6.22859174 120.2317713 6.23147623 124.58013384 6.24202538 128.92854118 C6.25167217 133.01688072 6.25180921 137.1051095 6.24450874 141.19345284 C6.24345862 142.6971312 6.24585092 144.20081634 6.2518692 145.70448303 C6.2595317 147.7509272 6.25377117 149.79740873 6.24723816 151.84385681 C6.24778293 152.99111205 6.24832769 154.13836729 6.24888897 155.32038784 C6 158 6 158 4 160 C-0.55555556 159.44444444 -0.55555556 159.44444444 -2 158 C-2.10112707 155.99233126 -2.1307754 153.98105234 -2.13371277 151.97084045 C-2.13797775 150.65974808 -2.14224274 149.3486557 -2.14663696 147.99783325 C-2.1462874 146.53118894 -2.14582584 145.06454464 -2.14526367 143.59790039 C-2.14825351 142.06407082 -2.15165563 140.530242 -2.15544128 138.99641418 C-2.16430328 134.81878239 -2.16662032 130.64117106 -2.16725707 126.46353078 C-2.16820434 122.98172202 -2.17188052 119.49991808 -2.17542917 116.01811117 C-2.18358207 107.80674938 -2.18601264 99.59539857 -2.18530273 91.3840332 C-2.1847017 82.90038953 -2.19525666 74.4168094 -2.2110464 65.93318182 C-2.22410141 58.66100071 -2.22948749 51.38884041 -2.22884732 44.11664766 C-2.22859174 39.7682287 -2.23147623 35.41986616 -2.24202538 31.07145882 C-2.25167217 26.98311928 -2.25180921 22.8948905 -2.24450874 18.80654716 C-2.24345862 17.3028688 -2.24585092 15.79918366 -2.2518692 14.29551697 C-2.2595317 12.2490728 -2.25377117 10.20259127 -2.24723816 8.15614319 C-2.24778293 7.00888795 -2.24832769 5.86163271 -2.24888897 4.67961216 C-2 2 -2 2 0 0 Z " fill="#252525" transform="translate(96,20)"/>
<path d="M0 0 C4.55555556 0.55555556 4.55555556 0.55555556 6 2 C6.10008034 3.50086237 6.13075376 5.00641233 6.13371277 6.51060486 C6.13797775 7.48513107 6.14224274 8.45965729 6.14663696 9.4637146 C6.14618378 10.5416629 6.14573059 11.61961121 6.14526367 12.73022461 C6.14862228 13.85857224 6.1519809 14.98691986 6.15544128 16.14945984 C6.16498429 19.90043217 6.16689605 23.65136002 6.16796875 27.40234375 C6.17117892 29.99687214 6.17454281 32.59140035 6.17805481 35.18592834 C6.18405442 40.63266496 6.18593651 46.07938378 6.18530273 51.52612305 C6.18470178 57.82851294 6.19525534 64.13081728 6.2110464 70.43318552 C6.22567749 76.4874896 6.22929136 82.5417471 6.22869301 88.59607124 C6.22987726 91.17617708 6.23432373 93.75628348 6.24202538 96.3363781 C6.25176894 99.93778557 6.24896958 103.53897017 6.24291992 107.14038086 C6.24853943 108.21630493 6.25415894 109.292229 6.25994873 110.40075684 C6.253657 111.86677589 6.253657 111.86677589 6.24723816 113.3624115 C6.24778293 114.21469298 6.24832769 115.06697447 6.24888897 115.94508266 C6 118 6 118 4 120 C-0.55555556 119.44444444 -0.55555556 119.44444444 -2 118 C-2.10008034 116.49913763 -2.13075376 114.99358767 -2.13371277 113.48939514 C-2.13797775 112.51486893 -2.14224274 111.54034271 -2.14663696 110.5362854 C-2.14618378 109.4583371 -2.14573059 108.38038879 -2.14526367 107.26977539 C-2.14862228 106.14142776 -2.1519809 105.01308014 -2.15544128 103.85054016 C-2.16498429 100.09956783 -2.16689605 96.34863998 -2.16796875 92.59765625 C-2.17117892 90.00312786 -2.17454281 87.40859965 -2.17805481 84.81407166 C-2.18405442 79.36733504 -2.18593651 73.92061622 -2.18530273 68.47387695 C-2.18470178 62.17148706 -2.19525534 55.86918272 -2.2110464 49.56681448 C-2.22567749 43.5125104 -2.22929136 37.4582529 -2.22869301 31.40392876 C-2.22987726 28.82382292 -2.23432373 26.24371652 -2.24202538 23.6636219 C-2.25176894 20.06221443 -2.24896958 16.46102983 -2.24291992 12.85961914 C-2.24853943 11.78369507 -2.25415894 10.707771 -2.25994873 9.59924316 C-2.25575424 8.62189713 -2.25155975 7.64455109 -2.24723816 6.6375885 C-2.24778293 5.78530702 -2.24832769 4.93302553 -2.24888897 4.05491734 C-2 2 -2 2 0 0 Z " fill="#252525" transform="translate(132,40)"/>
<path d="M0 0 C4.55555556 0.55555556 4.55555556 0.55555556 6 2 C6.10008034 3.50086237 6.13075376 5.00641233 6.13371277 6.51060486 C6.13797775 7.48513107 6.14224274 8.45965729 6.14663696 9.4637146 C6.14618378 10.5416629 6.14573059 11.61961121 6.14526367 12.73022461 C6.14862228 13.85857224 6.1519809 14.98691986 6.15544128 16.14945984 C6.16498429 19.90043217 6.16689605 23.65136002 6.16796875 27.40234375 C6.17117892 29.99687214 6.17454281 32.59140035 6.17805481 35.18592834 C6.18405442 40.63266496 6.18593651 46.07938378 6.18530273 51.52612305 C6.18470178 57.82851294 6.19525534 64.13081728 6.2110464 70.43318552 C6.22567749 76.4874896 6.22929136 82.5417471 6.22869301 88.59607124 C6.22987726 91.17617708 6.23432373 93.75628348 6.24202538 96.3363781 C6.25176894 99.93778557 6.24896958 103.53897017 6.24291992 107.14038086 C6.24853943 108.21630493 6.25415894 109.292229 6.25994873 110.40075684 C6.253657 111.86677589 6.253657 111.86677589 6.24723816 113.3624115 C6.24778293 114.21469298 6.24832769 115.06697447 6.24888897 115.94508266 C6 118 6 118 4 120 C-0.55555556 119.44444444 -0.55555556 119.44444444 -2 118 C-2.10008034 116.49913763 -2.13075376 114.99358767 -2.13371277 113.48939514 C-2.13797775 112.51486893 -2.14224274 111.54034271 -2.14663696 110.5362854 C-2.14618378 109.4583371 -2.14573059 108.38038879 -2.14526367 107.26977539 C-2.14862228 106.14142776 -2.1519809 105.01308014 -2.15544128 103.85054016 C-2.16498429 100.09956783 -2.16689605 96.34863998 -2.16796875 92.59765625 C-2.17117892 90.00312786 -2.17454281 87.40859965 -2.17805481 84.81407166 C-2.18405442 79.36733504 -2.18593651 73.92061622 -2.18530273 68.47387695 C-2.18470178 62.17148706 -2.19525534 55.86918272 -2.2110464 49.56681448 C-2.22567749 43.5125104 -2.22929136 37.4582529 -2.22869301 31.40392876 C-2.22987726 28.82382292 -2.23432373 26.24371652 -2.24202538 23.6636219 C-2.25176894 20.06221443 -2.24896958 16.46102983 -2.24291992 12.85961914 C-2.24853943 11.78369507 -2.25415894 10.707771 -2.25994873 9.59924316 C-2.25575424 8.62189713 -2.25155975 7.64455109 -2.24723816 6.6375885 C-2.24778293 5.78530702 -2.24832769 4.93302553 -2.24888897 4.05491734 C-2 2 -2 2 0 0 Z " fill="#252525" transform="translate(84,40)"/>
<path d="M0 0 C4.55555556 0.55555556 4.55555556 0.55555556 6 2 C6.10008034 3.50086237 6.13075376 5.00641233 6.13371277 6.51060486 C6.13797775 7.48513107 6.14224274 8.45965729 6.14663696 9.4637146 C6.14618378 10.5416629 6.14573059 11.61961121 6.14526367 12.73022461 C6.14862228 13.85857224 6.1519809 14.98691986 6.15544128 16.14945984 C6.16498429 19.90043217 6.16689605 23.65136002 6.16796875 27.40234375 C6.17117892 29.99687214 6.17454281 32.59140035 6.17805481 35.18592834 C6.18405442 40.63266496 6.18593651 46.07938378 6.18530273 51.52612305 C6.18470178 57.82851294 6.19525534 64.13081728 6.2110464 70.43318552 C6.22567749 76.4874896 6.22929136 82.5417471 6.22869301 88.59607124 C6.22987726 91.17617708 6.23432373 93.75628348 6.24202538 96.3363781 C6.25176894 99.93778557 6.24896958 103.53897017 6.24291992 107.14038086 C6.24853943 108.21630493 6.25415894 109.292229 6.25994873 110.40075684 C6.253657 111.86677589 6.253657 111.86677589 6.24723816 113.3624115 C6.24778293 114.21469298 6.24832769 115.06697447 6.24888897 115.94508266 C6 118 6 118 4 120 C-0.55555556 119.44444444 -0.55555556 119.44444444 -2 118 C-2.10008034 116.49913763 -2.13075376 114.99358767 -2.13371277 113.48939514 C-2.13797775 112.51486893 -2.14224274 111.54034271 -2.14663696 110.5362854 C-2.14618378 109.4583371 -2.14573059 108.38038879 -2.14526367 107.26977539 C-2.14862228 106.14142776 -2.1519809 105.01308014 -2.15544128 103.85054016 C-2.16498429 100.09956783 -2.16689605 96.34863998 -2.16796875 92.59765625 C-2.17117892 90.00312786 -2.17454281 87.40859965 -2.17805481 84.81407166 C-2.18405442 79.36733504 -2.18593651 73.92061622 -2.18530273 68.47387695 C-2.18470178 62.17148706 -2.19525534 55.86918272 -2.2110464 49.56681448 C-2.22567749 43.5125104 -2.22929136 37.4582529 -2.22869301 31.40392876 C-2.22987726 28.82382292 -2.23432373 26.24371652 -2.24202538 23.6636219 C-2.25176894 20.06221443 -2.24896958 16.46102983 -2.24291992 12.85961914 C-2.24853943 11.78369507 -2.25415894 10.707771 -2.25994873 9.59924316 C-2.25575424 8.62189713 -2.25155975 7.64455109 -2.24723816 6.6375885 C-2.24778293 5.78530702 -2.24832769 4.93302553 -2.24888897 4.05491734 C-2 2 -2 2 0 0 Z " fill="#252525" transform="translate(60,40)"/>
<path d="M0 0 C4.55555556 0.55555556 4.55555556 0.55555556 6 2 C6.10556617 4.36222218 6.14678498 6.69535384 6.14526367 9.05834961 C6.15030159 10.16565681 6.15030159 10.16565681 6.15544128 11.29533386 C6.16497882 13.74768738 6.16689579 16.19997282 6.16796875 18.65234375 C6.17117939 20.35006235 6.17454331 22.04778066 6.17805481 23.74549866 C6.1840531 27.30909873 6.18589399 30.87267453 6.18530273 34.4362793 C6.18520107 39.01093044 6.1988542 43.5854265 6.21607494 48.16004086 C6.22717344 51.6678184 6.22922261 55.17555821 6.22869301 58.68335152 C6.22987634 60.37031145 6.23431778 62.05727227 6.24202538 63.74421501 C6.25178209 66.10034025 6.24896453 68.45612558 6.24291992 70.81225586 C6.24853943 71.51415039 6.25415894 72.21604492 6.25994873 72.93920898 C6.22831577 77.77168423 6.22831577 77.77168423 4 80 C-0.55555556 79.44444444 -0.55555556 79.44444444 -2 78 C-2.10556617 75.63777782 -2.14678498 73.30464616 -2.14526367 70.94165039 C-2.14862228 70.20344559 -2.1519809 69.46524078 -2.15544128 68.70466614 C-2.16497882 66.25231262 -2.16689579 63.80002718 -2.16796875 61.34765625 C-2.17117939 59.64993765 -2.17454331 57.95221934 -2.17805481 56.25450134 C-2.1840531 52.69090127 -2.18589399 49.12732547 -2.18530273 45.5637207 C-2.18520107 40.98906956 -2.1988542 36.4145735 -2.21607494 31.83995914 C-2.22717344 28.3321816 -2.22922261 24.82444179 -2.22869301 21.31664848 C-2.22987634 19.62968855 -2.23431778 17.94272773 -2.24202538 16.25578499 C-2.25178209 13.89965975 -2.24896453 11.54387442 -2.24291992 9.18774414 C-2.24853943 8.48584961 -2.25415894 7.78395508 -2.25994873 7.06079102 C-2.22831577 2.22831577 -2.22831577 2.22831577 0 0 Z " fill="#252525" transform="translate(144,60)"/>
<path d="M0 0 C4.55555556 0.55555556 4.55555556 0.55555556 6 2 C6.10556617 4.36222218 6.14678498 6.69535384 6.14526367 9.05834961 C6.15030159 10.16565681 6.15030159 10.16565681 6.15544128 11.29533386 C6.16497882 13.74768738 6.16689579 16.19997282 6.16796875 18.65234375 C6.17117939 20.35006235 6.17454331 22.04778066 6.17805481 23.74549866 C6.1840531 27.30909873 6.18589399 30.87267453 6.18530273 34.4362793 C6.18520107 39.01093044 6.1988542 43.5854265 6.21607494 48.16004086 C6.22717344 51.6678184 6.22922261 55.17555821 6.22869301 58.68335152 C6.22987634 60.37031145 6.23431778 62.05727227 6.24202538 63.74421501 C6.25178209 66.10034025 6.24896453 68.45612558 6.24291992 70.81225586 C6.24853943 71.51415039 6.25415894 72.21604492 6.25994873 72.93920898 C6.22831577 77.77168423 6.22831577 77.77168423 4 80 C-0.55555556 79.44444444 -0.55555556 79.44444444 -2 78 C-2.10556617 75.63777782 -2.14678498 73.30464616 -2.14526367 70.94165039 C-2.14862228 70.20344559 -2.1519809 69.46524078 -2.15544128 68.70466614 C-2.16497882 66.25231262 -2.16689579 63.80002718 -2.16796875 61.34765625 C-2.17117939 59.64993765 -2.17454331 57.95221934 -2.17805481 56.25450134 C-2.1840531 52.69090127 -2.18589399 49.12732547 -2.18530273 45.5637207 C-2.18520107 40.98906956 -2.1988542 36.4145735 -2.21607494 31.83995914 C-2.22717344 28.3321816 -2.22922261 24.82444179 -2.22869301 21.31664848 C-2.22987634 19.62968855 -2.23431778 17.94272773 -2.24202538 16.25578499 C-2.25178209 13.89965975 -2.24896453 11.54387442 -2.24291992 9.18774414 C-2.24853943 8.48584961 -2.25415894 7.78395508 -2.25994873 7.06079102 C-2.22831577 2.22831577 -2.22831577 2.22831577 0 0 Z " fill="#252525" transform="translate(120,60)"/>
<path d="M0 0 C4.55555556 0.55555556 4.55555556 0.55555556 6 2 C6.10556617 4.36222218 6.14678498 6.69535384 6.14526367 9.05834961 C6.15030159 10.16565681 6.15030159 10.16565681 6.15544128 11.29533386 C6.16497882 13.74768738 6.16689579 16.19997282 6.16796875 18.65234375 C6.17117939 20.35006235 6.17454331 22.04778066 6.17805481 23.74549866 C6.1840531 27.30909873 6.18589399 30.87267453 6.18530273 34.4362793 C6.18520107 39.01093044 6.1988542 43.5854265 6.21607494 48.16004086 C6.22717344 51.6678184 6.22922261 55.17555821 6.22869301 58.68335152 C6.22987634 60.37031145 6.23431778 62.05727227 6.24202538 63.74421501 C6.25178209 66.10034025 6.24896453 68.45612558 6.24291992 70.81225586 C6.24853943 71.51415039 6.25415894 72.21604492 6.25994873 72.93920898 C6.22831577 77.77168423 6.22831577 77.77168423 4 80 C-0.55555556 79.44444444 -0.55555556 79.44444444 -2 78 C-2.10556617 75.63777782 -2.14678498 73.30464616 -2.14526367 70.94165039 C-2.14862228 70.20344559 -2.1519809 69.46524078 -2.15544128 68.70466614 C-2.16497882 66.25231262 -2.16689579 63.80002718 -2.16796875 61.34765625 C-2.17117939 59.64993765 -2.17454331 57.95221934 -2.17805481 56.25450134 C-2.1840531 52.69090127 -2.18589399 49.12732547 -2.18530273 45.5637207 C-2.18520107 40.98906956 -2.1988542 36.4145735 -2.21607494 31.83995914 C-2.22717344 28.3321816 -2.22922261 24.82444179 -2.22869301 21.31664848 C-2.22987634 19.62968855 -2.23431778 17.94272773 -2.24202538 16.25578499 C-2.25178209 13.89965975 -2.24896453 11.54387442 -2.24291992 9.18774414 C-2.24853943 8.48584961 -2.25415894 7.78395508 -2.25994873 7.06079102 C-2.22831577 2.22831577 -2.22831577 2.22831577 0 0 Z " fill="#252525" transform="translate(108,60)"/>
<path d="M0 0 C4.55555556 0.55555556 4.55555556 0.55555556 6 2 C6.10556617 4.36222218 6.14678498 6.69535384 6.14526367 9.05834961 C6.15030159 10.16565681 6.15030159 10.16565681 6.15544128 11.29533386 C6.16497882 13.74768738 6.16689579 16.19997282 6.16796875 18.65234375 C6.17117939 20.35006235 6.17454331 22.04778066 6.17805481 23.74549866 C6.1840531 27.30909873 6.18589399 30.87267453 6.18530273 34.4362793 C6.18520107 39.01093044 6.1988542 43.5854265 6.21607494 48.16004086 C6.22717344 51.6678184 6.22922261 55.17555821 6.22869301 58.68335152 C6.22987634 60.37031145 6.23431778 62.05727227 6.24202538 63.74421501 C6.25178209 66.10034025 6.24896453 68.45612558 6.24291992 70.81225586 C6.24853943 71.51415039 6.25415894 72.21604492 6.25994873 72.93920898 C6.22831577 77.77168423 6.22831577 77.77168423 4 80 C-0.55555556 79.44444444 -0.55555556 79.44444444 -2 78 C-2.10556617 75.63777782 -2.14678498 73.30464616 -2.14526367 70.94165039 C-2.14862228 70.20344559 -2.1519809 69.46524078 -2.15544128 68.70466614 C-2.16497882 66.25231262 -2.16689579 63.80002718 -2.16796875 61.34765625 C-2.17117939 59.64993765 -2.17454331 57.95221934 -2.17805481 56.25450134 C-2.1840531 52.69090127 -2.18589399 49.12732547 -2.18530273 45.5637207 C-2.18520107 40.98906956 -2.1988542 36.4145735 -2.21607494 31.83995914 C-2.22717344 28.3321816 -2.22922261 24.82444179 -2.22869301 21.31664848 C-2.22987634 19.62968855 -2.23431778 17.94272773 -2.24202538 16.25578499 C-2.25178209 13.89965975 -2.24896453 11.54387442 -2.24291992 9.18774414 C-2.24853943 8.48584961 -2.25415894 7.78395508 -2.25994873 7.06079102 C-2.22831577 2.22831577 -2.22831577 2.22831577 0 0 Z " fill="#252525" transform="translate(72,60)"/>
<path d="M0 0 C4.55555556 0.55555556 4.55555556 0.55555556 6 2 C6.10556617 4.36222218 6.14678498 6.69535384 6.14526367 9.05834961 C6.15030159 10.16565681 6.15030159 10.16565681 6.15544128 11.29533386 C6.16497882 13.74768738 6.16689579 16.19997282 6.16796875 18.65234375 C6.17117939 20.35006235 6.17454331 22.04778066 6.17805481 23.74549866 C6.1840531 27.30909873 6.18589399 30.87267453 6.18530273 34.4362793 C6.18520107 39.01093044 6.1988542 43.5854265 6.21607494 48.16004086 C6.22717344 51.6678184 6.22922261 55.17555821 6.22869301 58.68335152 C6.22987634 60.37031145 6.23431778 62.05727227 6.24202538 63.74421501 C6.25178209 66.10034025 6.24896453 68.45612558 6.24291992 70.81225586 C6.24853943 71.51415039 6.25415894 72.21604492 6.25994873 72.93920898 C6.22831577 77.77168423 6.22831577 77.77168423 4 80 C-0.55555556 79.44444444 -0.55555556 79.44444444 -2 78 C-2.10556617 75.63777782 -2.14678498 73.30464616 -2.14526367 70.94165039 C-2.14862228 70.20344559 -2.1519809 69.46524078 -2.15544128 68.70466614 C-2.16497882 66.25231262 -2.16689579 63.80002718 -2.16796875 61.34765625 C-2.17117939 59.64993765 -2.17454331 57.95221934 -2.17805481 56.25450134 C-2.1840531 52.69090127 -2.18589399 49.12732547 -2.18530273 45.5637207 C-2.18520107 40.98906956 -2.1988542 36.4145735 -2.21607494 31.83995914 C-2.22717344 28.3321816 -2.22922261 24.82444179 -2.22869301 21.31664848 C-2.22987634 19.62968855 -2.23431778 17.94272773 -2.24202538 16.25578499 C-2.25178209 13.89965975 -2.24896453 11.54387442 -2.24291992 9.18774414 C-2.24853943 8.48584961 -2.25415894 7.78395508 -2.25994873 7.06079102 C-2.22831577 2.22831577 -2.22831577 2.22831577 0 0 Z " fill="#252525" transform="translate(48,60)"/>
<path d="M0 0 C4.55555556 0.55555556 4.55555556 0.55555556 6 2 C6.11336626 4.64286274 6.16417761 7.25861456 6.16796875 9.90234375 C6.17129715 10.69524307 6.17462555 11.4881424 6.17805481 12.30506897 C6.18312726 13.98551858 6.18546304 15.66597829 6.18530273 17.34643555 C6.18748786 19.92318259 6.20563609 22.49950076 6.22460938 25.07617188 C6.22754345 26.7057277 6.22952815 28.33528556 6.23046875 29.96484375 C6.23765427 30.73884018 6.24483978 31.51283661 6.25224304 32.31028748 C6.22882253 37.77117747 6.22882253 37.77117747 4 40 C-0.55555556 39.44444444 -0.55555556 39.44444444 -2 38 C-2.11336626 35.35713726 -2.16417761 32.74138544 -2.16796875 30.09765625 C-2.17129715 29.30475693 -2.17462555 28.5118576 -2.17805481 27.69493103 C-2.18312726 26.01448142 -2.18546304 24.33402171 -2.18530273 22.65356445 C-2.18748786 20.07681741 -2.20563609 17.50049924 -2.22460938 14.92382812 C-2.22754345 13.2942723 -2.22952815 11.66471444 -2.23046875 10.03515625 C-2.23765427 9.26115982 -2.24483978 8.48716339 -2.25224304 7.68971252 C-2.22882253 2.22882253 -2.22882253 2.22882253 0 0 Z " fill="#262626" transform="translate(156,80)"/>
<path d="M0 0 C4.55555556 0.55555556 4.55555556 0.55555556 6 2 C6.11336626 4.64286274 6.16417761 7.25861456 6.16796875 9.90234375 C6.17129715 10.69524307 6.17462555 11.4881424 6.17805481 12.30506897 C6.18312726 13.98551858 6.18546304 15.66597829 6.18530273 17.34643555 C6.18748786 19.92318259 6.20563609 22.49950076 6.22460938 25.07617188 C6.22754345 26.7057277 6.22952815 28.33528556 6.23046875 29.96484375 C6.23765427 30.73884018 6.24483978 31.51283661 6.25224304 32.31028748 C6.22882253 37.77117747 6.22882253 37.77117747 4 40 C-0.55555556 39.44444444 -0.55555556 39.44444444 -2 38 C-2.11336626 35.35713726 -2.16417761 32.74138544 -2.16796875 30.09765625 C-2.17129715 29.30475693 -2.17462555 28.5118576 -2.17805481 27.69493103 C-2.18312726 26.01448142 -2.18546304 24.33402171 -2.18530273 22.65356445 C-2.18748786 20.07681741 -2.20563609 17.50049924 -2.22460938 14.92382812 C-2.22754345 13.2942723 -2.22952815 11.66471444 -2.23046875 10.03515625 C-2.23765427 9.26115982 -2.24483978 8.48716339 -2.25224304 7.68971252 C-2.22882253 2.22882253 -2.22882253 2.22882253 0 0 Z " fill="#262626" transform="translate(36,80)"/>
</svg>
